<!DOCTYPE svg PUBLIC "-//W3C//DTD SVG 1.1//EN" "http://www.w3.org/Graphics/SVG/1.1/DTD/svg11.dtd">
<!-- Uploaded to: SVG Repo, www.svgrepo.com, Transformed by: SVG Repo Mixer Tools -->
<svg height="800px" width="800px" version="1.1" id="Layer_1" xmlns="http://www.w3.org/2000/svg" xmlns:xlink="http://www.w3.org/1999/xlink" viewBox="0 0 512 512" xml:space="preserve" fill="#000000">
<g id="SVGRepo_bgCarrier" stroke-width="0"/>
<g id="SVGRepo_tracerCarrier" stroke-linecap="round" stroke-linejoin="round"/>
<g id="SVGRepo_iconCarrier"> <polygon style="fill:#E04F5F;" points="307.64,167.608 344.072,130.456 344.072,220.104 378.064,220.104 378.064,130.456 414.496,167.608 438.752,143.936 361.072,64.736 283.384,143.936 "/> <path style="fill:#25B6D2;" d="M401.392,271.552H432c44,0,80,35.936,80,79.872v15.968c0,43.92-36,79.872-80,79.872H80 c-44,0-80-35.936-80-79.872v-15.968c0-40.96,31.424-74.592,71.328-78.992c-0.784-5.52-1.328-11.12-1.328-16.848 c0-65.616,53.28-118.8,118.992-118.8c50.464,0,93.488,31.424,110.8,75.68c0,0,26.672-12.24,60.016-0.448 C401.264,226.688,401.392,271.552,401.392,271.552z"/> <polygon style="fill:#FFFFFF;" points="251.12,284.768 214.688,321.92 214.688,232.272 180.704,232.272 180.704,321.92 144.272,284.768 120.008,308.44 197.688,387.64 275.384,308.44 "/> </g>
</svg>